<?xml version="1.0" encoding="utf-8"?>
<!-- Generator: Adobe Illustrator 17.0.0, SVG Export Plug-In . SVG Version: 6.00 Build 0)  -->
<!DOCTYPE svg PUBLIC "-//W3C//DTD SVG 1.1//EN" "http://www.w3.org/Graphics/SVG/1.1/DTD/svg11.dtd">
<svg version="1.1" id="Layer_1" xmlns="http://www.w3.org/2000/svg" xmlns:xlink="http://www.w3.org/1999/xlink" x="0px" y="0px"
	 width="202.97px" height="133.31px" viewBox="0 0 202.97 133.31" enable-background="new 0 0 202.97 133.31" xml:space="preserve">
<g>
	<path fill="#283D54" d="M15.78,132.65c4.8,1.26,10.37,0.76,16.18-1.77c9.86-4.05,21.24-12.64,32.36-23.01
		c7.84-7.58,22.5-11.38,37.16-11.38c14.66,0,29.33,3.79,37.16,11.38c11.12,10.37,22.5,18.96,32.36,23.01
		c5.81,2.28,11.38,3.03,16.18,1.77c5.06-1.52,9.35-5.06,12.13-11.63c2.78-6.32,4.04-15.67,3.54-28.82
		c-0.51-11.63-2.53-24.52-5.56-36.66c-3.03-11.63-6.83-22.5-11.38-30.84C168.23-6.4,149.02-1.6,126.01,4.47
		c-7.33,1.77-15.17,3.79-23.26,4.55l-2.53,0C92.13,8.26,84.3,6.24,76.96,4.47C53.96-1.34,34.74-6.4,17.05,24.95
		c-4.55,8.34-8.6,19.21-11.38,30.84C2.64,67.93,0.61,80.82,0.11,92.45c-0.51,12.89,0.76,22.25,3.54,28.82
		C6.43,127.34,10.47,131.13,15.78,132.65z M9.46,92.7c0.51-10.87,2.28-23.26,5.31-34.89c2.78-10.87,6.32-20.98,10.62-28.57
		c13.9-25.03,30.08-20.98,49.3-15.93c7.84,2.02,15.93,4.04,24.78,4.8c0.25,0,0.25,0,0.51,0l2.78,0l0,0c0.25,0,0.25,0,0.51,0
		c9.1-0.76,17.19-2.78,25.03-4.8c19.21-4.8,35.39-9.1,49.3,15.93c4.3,7.58,7.84,17.44,10.62,28.57c2.78,11.63,4.8,23.76,5.31,34.89
		c0.51,11.63-0.51,19.47-2.78,24.78c-1.52,3.54-3.54,5.56-6.07,6.32c-2.78,0.76-6.32,0.25-10.37-1.26
		c-8.85-3.54-19.21-11.38-29.33-20.98c-9.61-9.61-26.55-14.41-43.48-14.41c-16.94,0-33.88,4.8-43.74,13.91
		c-10.37,9.61-20.73,17.7-29.33,20.98c-4.05,1.52-7.58,2.28-10.37,1.26c-2.53-0.76-4.55-2.78-6.07-6.32
		C9.97,112.17,8.96,104.33,9.46,92.7z"/>
	<path fill="#283D54" d="M39.8,67.93c0.25,3.54,1.77,6.83,4.3,9.1c2.78,2.78,6.32,4.3,10.37,4.3l0,0c4.05,0,7.84-1.77,10.37-4.3l0,0
		c2.28-2.53,4.04-5.56,4.3-9.1c3.54-0.25,6.83-1.77,9.1-4.3c2.78-2.78,4.3-6.32,4.3-10.37l0,0c0-4.05-1.77-7.84-4.3-10.37l0,0
		c-2.53-2.28-5.56-4.04-9.1-4.3c-0.25-3.29-1.77-6.57-4.05-8.85l-0.25-0.25c-2.78-2.78-6.32-4.3-10.37-4.3l0,0
		c-4.05,0-7.84,1.77-10.37,4.3c-2.28,2.28-4.04,5.56-4.3,9.1c-3.54,0.25-6.57,1.77-9.1,4.05l-0.25,0.25
		c-2.78,2.78-4.3,6.32-4.3,10.37l0,0c0,4.05,1.77,7.84,4.3,10.37C32.97,66.16,36.01,67.67,39.8,67.93z M35.5,53.26
		c0-1.52,0.51-2.78,1.52-3.79c0,0,0,0,0.25-0.25c1.01-0.76,2.28-1.26,3.54-1.26l3.54,0c2.53,0,4.8-2.02,4.8-4.8l0-3.54
		c0-1.52,0.51-2.78,1.52-3.79c1.01-1.01,2.28-1.52,3.79-1.52l0,0c1.52,0,2.78,0.51,3.79,1.52c0,0,0,0,0.25,0.25
		c0.76,1.01,1.26,2.28,1.26,3.54l0,3.54c0,2.53,2.02,4.8,4.8,4.8l3.54,0c1.52,0,2.78,0.51,3.79,1.52l0,0l0,0
		c1.01,1.01,1.52,2.28,1.52,3.79l0,0c0,1.52-0.51,2.78-1.52,3.79c-1.01,1.01-2.28,1.52-3.79,1.52l-3.54,0c-2.53,0-4.8,2.02-4.8,4.8
		l0,3.29c0,1.52-0.51,2.78-1.52,3.79l0,0l0,0c-1.01,1.01-2.28,1.52-3.79,1.52l0,0c-1.52,0-2.78-0.51-3.79-1.52s-1.52-2.28-1.52-3.79
		l0-3.54c0-2.53-2.02-4.8-4.8-4.8l-3.54,0c-1.52,0-2.78-0.51-3.79-1.52C36.26,56.04,35.5,54.78,35.5,53.26L35.5,53.26z"/>
	<circle fill="#283D54" cx="145.48" cy="35.31" r="8.85"/>
	<circle fill="#283D54" cx="145.48" cy="71.21" r="8.85"/>
	<circle fill="#283D54" cx="127.53" cy="53.26" r="8.85"/>
	<circle fill="#283D54" cx="163.43" cy="53.26" r="8.85"/>
</g>
</svg>
