<?xml version="1.0" encoding="utf-8"?>
<!-- Generator: Adobe Illustrator 17.0.0, SVG Export Plug-In . SVG Version: 6.00 Build 0)  -->
<!DOCTYPE svg PUBLIC "-//W3C//DTD SVG 1.1//EN" "http://www.w3.org/Graphics/SVG/1.1/DTD/svg11.dtd">
<svg version="1.1" id="Layer_1" xmlns="http://www.w3.org/2000/svg" xmlns:xlink="http://www.w3.org/1999/xlink" x="0px" y="0px"
	 width="146.07px" height="113.89px" viewBox="0 0 146.07 113.89" enable-background="new 0 0 146.07 113.89" xml:space="preserve">
<path fill-rule="evenodd" clip-rule="evenodd" fill="#DFDFEF" d="M69.97,9.5c-2.12-0.01-10.04-0.09-11.28-0.54
	c-1.42-0.51-4.97-2.51-6.06-2.74C48.48,5.36,37,6.95,35.07,9.93c0,0-5.84,10.84-8.25,22.04c-0.98,4.58-1.44,8.52-1.54,11.8
	c0.15,2.93,0.62,5.09,1.2,6.43c1.33,3.09,2.81,4.35,5.04,4.53c2.23,0.17,4.83-0.45,9.76-3.26c4.92-2.8,7.34-6.25,13.52-8.26
	c4.51-1.47,11.81-1.65,15.43-1.64c3.62-0.05,10.92,0.04,15.45,1.46c6.21,1.93,8.69,5.35,13.66,8.09c4.97,2.74,7.58,3.34,9.81,3.14
	c2.23-0.2,3.69-1.48,4.97-4.59c0.55-1.35,0.99-3.52,1.09-6.45c-0.16-3.28-0.67-7.22-1.73-11.78c-2.59-11.17-8.61-21.94-8.61-21.94
	C102.9,6.55,91.4,5.1,87.26,6.02c-1.09,0.24-4.6,2.28-6.01,2.81C80.01,9.28,72.09,9.46,69.97,9.5z"/>
<path fill-rule="evenodd" clip-rule="evenodd" fill="#283D54" d="M47.34,26.37c3.46-0.02,6.26-2.76,6.24-6.08
	c-0.02-3.33-2.86-6.02-6.33-6c-3.46,0.02-6.26,2.76-6.24,6.09C41.04,23.7,43.88,26.4,47.34,26.37z"/>
<path fill-rule="evenodd" clip-rule="evenodd" fill="#283D54" d="M83.18,40.23c3.51-0.02,6.36-2.7,6.33-5.97
	c-0.03-3.26-2.91-5.91-6.42-5.88c-3.51,0.02-6.36,2.7-6.33,5.97C76.78,37.61,79.67,40.25,83.18,40.23z"/>
<path fill-rule="evenodd" clip-rule="evenodd" fill="#283D54" d="M60.1,40.41c3.65-0.02,6.6-2.8,6.57-6.19
	c-0.03-3.39-3.02-6.13-6.67-6.1c-3.64,0.02-6.59,2.8-6.57,6.19C53.46,37.69,56.46,40.43,60.1,40.41z"/>
<path fill-rule="evenodd" clip-rule="evenodd" fill="#283D54" d="M94.03,15.99c-1.51-0.36-2.57-1.63-2.58-3.09
	c-0.01-1.77,1.51-3.22,3.4-3.24c0.29,0,0.59,0.03,0.87,0.1c1.51,0.36,2.57,1.63,2.58,3.09c0.01,0.86-0.34,1.66-0.99,2.28
	c-0.64,0.61-1.5,0.95-2.41,0.96C94.61,16.09,94.32,16.06,94.03,15.99z"/>
<path fill-rule="evenodd" clip-rule="evenodd" fill="#283D54" d="M87.04,22.15c-1.51-0.36-2.57-1.63-2.58-3.09
	c-0.01-1.77,1.51-3.22,3.4-3.23c0.29,0,0.58,0.03,0.87,0.1c1.51,0.36,2.57,1.63,2.58,3.09c0.01,1.77-1.51,3.22-3.4,3.23
	C87.62,22.26,87.33,22.22,87.04,22.15L87.04,22.15z"/>
<path fill-rule="evenodd" clip-rule="evenodd" fill="#283D54" d="M94.13,28.57c-1.51-0.36-2.57-1.63-2.58-3.09
	c-0.01-0.86,0.35-1.66,0.99-2.28c0.64-0.61,1.5-0.95,2.41-0.96c0.29,0,0.58,0.03,0.87,0.1c1.51,0.36,2.57,1.63,2.58,3.09
	c0.01,0.86-0.34,1.66-0.99,2.28c-0.64,0.61-1.5,0.95-2.41,0.96C94.7,28.67,94.41,28.64,94.13,28.57z"/>
<path fill-rule="evenodd" clip-rule="evenodd" fill="#283D54" d="M100.7,22.07c-1.51-0.36-2.57-1.63-2.58-3.09
	c-0.01-1.77,1.51-3.22,3.4-3.23c0.29,0,0.59,0.03,0.87,0.1c1.51,0.36,2.57,1.63,2.58,3.09c0.01,1.77-1.51,3.22-3.4,3.23
	C101.28,22.17,100.99,22.13,100.7,22.07z"/>
<g>
	<path fill-rule="evenodd" clip-rule="evenodd" fill="#E0A570" d="M14.09,64.5c-1.23-10.58-4.84-25.45-0.28-29.76
		c1.11-2.81,5.07-16.7,15.8-27.84c2.12-2.21,7-5.87,12.19-6.9c2.51-0.13,5.65,5.53-2.23,7.78c-8.37,6.07-15.75,29.67-6.27,34.06
		c2.28,1.05,6.1,1.23,11.31-1.3l8.94,7.15c-9.88,14.28-3.44,5.52-12.34,17.33c-1,1.33-5.36,25.78-7.44,46.37H4.62
		C11.81,88.14,12.91,71.19,14.09,64.5z"/>
	<path fill-rule="evenodd" clip-rule="evenodd" fill="#E0A570" d="M59.92,36.65c-0.04,2.63-10.35,16.75-10.88,16.96
		c-2,0.78-11.93-1.13-14.4-10.38c1.08-0.68,13.14-3.5,14.82-7.23C52.41,29.46,63.54,27.5,59.92,36.65z"/>
	<path fill-rule="evenodd" clip-rule="evenodd" fill="#E0A570" d="M131.09,64.39c0.15-10.63,2.22-25.7-2.76-29.67
		c-1.4-2.72-5.2-17.95-17.03-28.28c-2.34-2.05-7.57-5.35-12.85-6.01c-2.52,0.05-5.06,5.92,3.02,7.59
		c7.09,6.31,17.17,30.11,8.17,35.16c-2.16,1.21-5.95,1.66-11.4-0.49l-8.17,7.76c11.31,13.52,3.99,5.26,14.07,16.39
		c1.13,1.25,7.97,25.3,12.15,45.67l29.02-2.08C135.78,87.79,132.95,70.97,131.09,64.39z"/>
	<path fill-rule="evenodd" clip-rule="evenodd" fill="#E0A570" d="M82.66,37.78c0.31,2.62,10.81,17.25,11.37,17.42
		c2.07,0.64,12.72-2.04,14.23-11.43c-1.14-0.6-13.19-3.79-15.25-7.38C89.41,30.08,78.12,28.93,82.66,37.78z"/>
</g>
<polygon fill-rule="evenodd" clip-rule="evenodd" fill="#44698C" points="35.27,113.89 39.89,75.59 11.37,72.05 0,113.89 "/>
<polygon fill-rule="evenodd" clip-rule="evenodd" fill="#44698C" points="110.8,113.89 106.18,75.59 134.71,72.05 146.07,113.89 "/>
</svg>
